<svg data-v-0dd9719b="" version="1.0"
    xmlns="http://www.w3.org/2000/svg"
    xmlns:xlink="http://www.w3.org/1999/xlink" width="100%" height="100%" viewBox="0 0 340.000000 250.000000">
    <g fill="#144579" class="pmspacesvg" transform="translate(50.06655025482178,92.24994277954102)">        <!---->
        <g>
            <g mask="url(#66829926-63b6-4d82-a883-b64fb50fc5a9)" transform="translate(0,0)">
                <g>
                    <polyline x="0" y="0" data-gra="graph-name" fill="#FFCC66" points="0,0 58.39999771118164,0 0,58.39999771118164, 0,0"></polyline>
                    <rect data-gra="graph-name" fill="#144579"></rect>
                </g>
                <g data-gra="path-name" fill-rule="" class="tp-name" fill="#144579" transform="translate(10,5)">
                    <g transform="scale(1)">
                        <g>
                            <path d="M23.74 0L22.19-4.71 11.8-4.71 10.26 0 0 0 11.41-31.18 22.68-31.18 34.04 0 23.74 0ZM14.18-12.07L19.82-12.07 17-20.74 14.18-12.07ZM46.02-21.45Q46.94-23.16 48.68-24.15 50.42-25.14 52.84-25.14L52.84-25.14Q55.75-25.14 58.08-23.63 60.42-22.11 61.76-19.22 63.1-16.34 63.1-12.42L63.1-12.42Q63.1-8.5 61.76-5.61 60.42-2.73 58.08-1.21 55.75 0.31 52.84 0.31L52.84 0.31Q50.42 0.31 48.68-0.68 46.94-1.67 46.02-3.39L46.02-3.39 46.02 11.89 36.24 11.89 36.24-24.84 46.02-24.84 46.02-21.45ZM53.2-12.42Q53.2-14.4 52.18-15.5 51.17-16.6 49.58-16.6L49.58-16.6Q48-16.6 46.99-15.5 45.97-14.4 45.97-12.42L45.97-12.42Q45.97-10.44 46.99-9.34 48-8.23 49.58-8.23L49.58-8.23Q51.17-8.23 52.18-9.34 53.2-10.44 53.2-12.42L53.2-12.42ZM75.96-21.45Q76.89-23.16 78.63-24.15 80.37-25.14 82.79-25.14L82.79-25.14Q85.69-25.14 88.03-23.63 90.36-22.11 91.7-19.22 93.05-16.34 93.05-12.42L93.05-12.42Q93.05-8.5 91.7-5.61 90.36-2.73 88.03-1.21 85.69 0.31 82.79 0.31L82.79 0.31Q80.37 0.31 78.63-0.68 76.89-1.67 75.96-3.39L75.96-3.39 75.96 11.89 66.19 11.89 66.19-24.84 75.96-24.84 75.96-21.45ZM83.14-12.42Q83.14-14.4 82.13-15.5 81.11-16.6 79.53-16.6L79.53-16.6Q77.94-16.6 76.93-15.5 75.92-14.4 75.92-12.42L75.92-12.42Q75.92-10.44 76.93-9.34 77.94-8.23 79.53-8.23L79.53-8.23Q81.11-8.23 82.13-9.34 83.14-10.44 83.14-12.42L83.14-12.42ZM107.93 0.31Q104.19 0.31 101.19-1.23 98.2-2.77 96.5-5.66 94.81-8.54 94.81-12.42L94.81-12.42Q94.81-16.29 96.5-19.18 98.2-22.06 101.19-23.6 104.19-25.14 107.93-25.14L107.93-25.14Q111.68-25.14 114.67-23.6 117.66-22.06 119.36-19.18 121.05-16.29 121.05-12.42L121.05-12.42Q121.05-8.54 119.36-5.66 117.66-2.77 114.67-1.23 111.68 0.31 107.93 0.31L107.93 0.31ZM107.93-8.15Q109.3-8.15 110.22-9.23 111.15-10.3 111.15-12.42L111.15-12.42Q111.15-14.53 110.22-15.61 109.3-16.69 107.93-16.69L107.93-16.69Q106.57-16.69 105.64-15.61 104.72-14.53 104.72-12.42L104.72-12.42Q104.72-10.3 105.62-9.23 106.52-8.15 107.93-8.15L107.93-8.15ZM129.07-26.82Q126.52-26.82 124.97-28.18 123.43-29.55 123.43-31.62L123.43-31.62Q123.43-33.73 124.97-35.12 126.52-36.51 129.07-36.51L129.07-36.51Q131.58-36.51 133.12-35.12 134.66-33.73 134.66-31.62L134.66-31.62Q134.66-29.55 133.12-28.18 131.58-26.82 129.07-26.82L129.07-26.82ZM124.14-24.84L133.91-24.84 133.91 0 124.14 0 124.14-24.84ZM155.71-25.01Q159.98-25.01 162.38-22.15 164.78-19.29 164.78-14.4L164.78-14.4 164.78 0 155.05 0 155.05-13.17Q155.05-14.93 154.1-15.96 153.16-17 151.57-17L151.57-17Q149.94-17 149.02-15.96 148.09-14.93 148.09-13.17L148.09-13.17 148.09 0 138.32 0 138.32-24.84 148.09-24.84 148.09-21.05Q149.24-22.81 151.15-23.91 153.07-25.01 155.71-25.01L155.71-25.01ZM182.13-8.32L184.47-8.32 184.47 0 180.77 0Q170.55 0 170.55-10.17L170.55-10.17 170.55-16.69 167.47-16.69 167.47-24.84 170.55-24.84 170.55-30.83 180.33-30.83 180.33-24.84 184.38-24.84 184.38-16.69 180.33-16.69 180.33-10Q180.33-9.12 180.75-8.72 181.16-8.32 182.13-8.32L182.13-8.32ZM188.21-32.59L197.99-32.59 197.99 0 188.21 0 188.21-32.59ZM219.65-24.84L230.44-24.84 214.54 11.89 203.84 11.89 210.1-1.23 199.75-24.84 210.62-24.84 215.29-12.24 219.65-24.84Z" transform="translate(0, 36.5099983215332)"></path>
                        </g>                        <!---->                        <!---->                        <!---->                        <!---->                        <!---->                        <!---->                        <!----></g>
                </g>
            </g>
            <g data-gra="path-slogan" fill-rule="" class="tp-slogan" fill="#144579" transform="translate(-0.5749969482421875,61.39999771118164)">                <!---->                <!---->
                <g transform="scale(1, 1)">
                    <g transform="scale(1)">
                        <path d="M2.23-1.61L1.04-1.61L1.22-2.21C1.30-2.44 1.37-2.66 1.43-2.87C1.49-3.09 1.56-3.32 1.62-3.55L1.64-3.55C1.71-3.32 1.77-3.09 1.83-2.87C1.90-2.66 1.97-2.44 2.04-2.21ZM2.35-1.21L2.73 0L3.26 0L1.92-3.96L1.36-3.96L0.02 0L0.53 0L0.91-1.21ZM3.82-3.96L3.82 0L4.33 0L4.33-1.57L5.04-1.57C5.25-1.57 5.45-1.59 5.63-1.64C5.81-1.69 5.96-1.77 6.09-1.87C6.22-1.97 6.32-2.10 6.39-2.25C6.46-2.40 6.50-2.58 6.50-2.79C6.50-3.01 6.46-3.19 6.39-3.34C6.32-3.49 6.22-3.61 6.10-3.70C5.97-3.79 5.82-3.86 5.63-3.90C5.45-3.94 5.25-3.96 5.04-3.96ZM4.98-1.98L4.33-1.98L4.33-3.55L4.98-3.55C5.32-3.55 5.57-3.50 5.74-3.39C5.91-3.28 6.00-3.08 6.00-2.79C6.00-2.51 5.91-2.31 5.75-2.17C5.58-2.04 5.32-1.98 4.98-1.98ZM7.30-3.96L7.30 0L7.80 0L7.80-1.57L8.51-1.57C8.73-1.57 8.93-1.59 9.11-1.64C9.29-1.69 9.44-1.77 9.57-1.87C9.70-1.97 9.80-2.10 9.87-2.25C9.94-2.40 9.97-2.58 9.97-2.79C9.97-3.01 9.94-3.19 9.87-3.34C9.80-3.49 9.70-3.61 9.57-3.70C9.44-3.79 9.29-3.86 9.11-3.90C8.93-3.94 8.73-3.96 8.51-3.96ZM8.45-1.98L7.80-1.98L7.80-3.55L8.45-3.55C8.79-3.55 9.05-3.50 9.22-3.39C9.39-3.28 9.47-3.08 9.47-2.79C9.47-2.51 9.39-2.31 9.22-2.17C9.05-2.04 8.80-1.98 8.45-1.98ZM12.24 0.07C12.48 0.07 12.71 0.02 12.92-0.07C13.13-0.17 13.31-0.31 13.46-0.49C13.61-0.66 13.72-0.88 13.81-1.14C13.89-1.39 13.93-1.68 13.93-2.00C13.93-2.31 13.89-2.59 13.81-2.84C13.72-3.10 13.61-3.31 13.46-3.48C13.31-3.66 13.13-3.79 12.92-3.89C12.71-3.98 12.48-4.03 12.24-4.03C11.99-4.03 11.76-3.98 11.55-3.89C11.34-3.80 11.17-3.67 11.02-3.49C10.87-3.32 10.75-3.10 10.67-2.85C10.59-2.60 10.55-2.31 10.55-2.00C10.55-1.68 10.59-1.39 10.67-1.14C10.75-0.88 10.87-0.66 11.02-0.49C11.17-0.31 11.34-0.17 11.55-0.07C11.76 0.02 11.99 0.07 12.24 0.07ZM12.24-0.37C12.06-0.37 11.90-0.41 11.76-0.48C11.61-0.56 11.49-0.67 11.39-0.81C11.28-0.95 11.21-1.13 11.15-1.32C11.09-1.52 11.06-1.75 11.06-2.00C11.06-2.24 11.09-2.46 11.15-2.66C11.21-2.86 11.28-3.02 11.39-3.16C11.49-3.30 11.61-3.40 11.76-3.48C11.90-3.55 12.06-3.59 12.24-3.59C12.41-3.59 12.57-3.55 12.71-3.48C12.86-3.40 12.98-3.30 13.08-3.16C13.19-3.02 13.26-2.86 13.32-2.66C13.38-2.46 13.41-2.24 13.41-2.00C13.41-1.75 13.38-1.52 13.32-1.32C13.26-1.13 13.19-0.95 13.08-0.81C12.98-0.67 12.86-0.56 12.71-0.48C12.57-0.41 12.41-0.37 12.24-0.37ZM14.78-3.96L14.78 0L15.28 0L15.28-3.96ZM16.37-3.96L16.37 0L16.84 0L16.84-2.07C16.84-2.28 16.84-2.49 16.82-2.69C16.81-2.90 16.79-3.11 16.78-3.31L16.80-3.31L17.23-2.49L18.67 0L19.19 0L19.19-3.96L18.71-3.96L18.71-1.91C18.71-1.70 18.72-1.49 18.73-1.28C18.74-1.06 18.76-0.85 18.77-0.65L18.74-0.65L18.32-1.47L16.89-3.96ZM21.09-3.54L21.09 0L21.60 0L21.60-3.54L22.79-3.54L22.79-3.96L19.90-3.96L19.90-3.54ZM23.50-3.96L23.50 0L25.74 0L25.74-0.43L24.01-0.43L24.01-3.96ZM26.62-1.53L26.62 0L27.12 0L27.12-1.53L28.31-3.96L27.79-3.96L27.28-2.84C27.22-2.70 27.16-2.55 27.09-2.41C27.02-2.27 26.95-2.13 26.88-1.98L26.86-1.98C26.79-2.13 26.73-2.27 26.67-2.41C26.61-2.55 26.54-2.70 26.48-2.84L25.97-3.96L25.43-3.96ZM30.07-3.96L30.07 0L30.57 0L30.57-3.96ZM31.67-0.86L31.37-0.51C31.54-0.33 31.74-0.19 31.98-0.08C32.22 0.02 32.48 0.07 32.75 0.07C32.96 0.07 33.15 0.04 33.31-0.02C33.48-0.07 33.62-0.15 33.74-0.26C33.85-0.36 33.94-0.48 34.01-0.62C34.07-0.75 34.10-0.90 34.10-1.06C34.10-1.20 34.08-1.33 34.04-1.44C33.99-1.55 33.94-1.65 33.86-1.73C33.79-1.81 33.70-1.88 33.60-1.95C33.50-2.01 33.40-2.06 33.28-2.11L32.72-2.35C32.64-2.39 32.56-2.42 32.49-2.46C32.41-2.50 32.34-2.54 32.28-2.59C32.21-2.64 32.16-2.70 32.12-2.77C32.09-2.83 32.07-2.91 32.07-3.01C32.07-3.19 32.13-3.33 32.27-3.44C32.40-3.54 32.58-3.59 32.80-3.59C32.99-3.59 33.15-3.56 33.30-3.49C33.45-3.42 33.58-3.33 33.70-3.22L33.97-3.54C33.83-3.69 33.66-3.80 33.46-3.89C33.26-3.98 33.04-4.03 32.80-4.03C32.62-4.03 32.46-4.00 32.30-3.95C32.15-3.90 32.02-3.83 31.91-3.73C31.80-3.64 31.72-3.53 31.65-3.40C31.59-3.27 31.56-3.13 31.56-2.98C31.56-2.84 31.58-2.71 31.63-2.60C31.68-2.49 31.74-2.39 31.82-2.31C31.90-2.23 31.98-2.16 32.08-2.11C32.17-2.05 32.27-2.00 32.36-1.96L32.93-1.71C33.02-1.67 33.11-1.63 33.19-1.59C33.27-1.55 33.34-1.50 33.40-1.45C33.45-1.40 33.50-1.34 33.54-1.27C33.57-1.20 33.59-1.11 33.59-1.01C33.59-0.82 33.51-0.66 33.37-0.55C33.22-0.43 33.02-0.37 32.76-0.37C32.55-0.37 32.36-0.41 32.17-0.50C31.97-0.59 31.81-0.71 31.67-0.86ZM37.78-1.61L36.59-1.61L36.78-2.21C36.85-2.44 36.92-2.66 36.98-2.87C37.05-3.09 37.11-3.32 37.17-3.55L37.19-3.55C37.26-3.32 37.32-3.09 37.39-2.87C37.45-2.66 37.52-2.44 37.59-2.21ZM37.91-1.21L38.28 0L38.82 0L37.48-3.96L36.91-3.96L35.57 0L36.08 0L36.46-1.21ZM39.38-3.96L39.38 0L39.85 0L39.85-2.07C39.85-2.28 39.85-2.49 39.83-2.69C39.82-2.90 39.80-3.11 39.79-3.31L39.81-3.31L40.24-2.49L41.68 0L42.20 0L42.20-3.96L41.72-3.96L41.72-1.91C41.72-1.70 41.73-1.49 41.74-1.28C41.75-1.06 41.77-0.85 41.78-0.65L41.76-0.65L41.33-1.47L39.90-3.96ZM46.18-1.61L44.99-1.61L45.18-2.21C45.25-2.44 45.32-2.66 45.39-2.87C45.45-3.09 45.51-3.32 45.57-3.55L45.60-3.55C45.66-3.32 45.73-3.09 45.79-2.87C45.86-2.66 45.92-2.44 46.00-2.21ZM46.31-1.21L46.68 0L47.22 0L45.88-3.96L45.31-3.96L43.98 0L44.49 0L44.87-1.21ZM47.78-3.96L47.78 0L48.28 0L48.28-1.57L48.99-1.57C49.21-1.57 49.41-1.59 49.59-1.64C49.77-1.69 49.92-1.77 50.05-1.87C50.18-1.97 50.28-2.10 50.35-2.25C50.42-2.40 50.45-2.58 50.45-2.79C50.45-3.01 50.42-3.19 50.35-3.34C50.28-3.49 50.18-3.61 50.05-3.70C49.93-3.79 49.77-3.86 49.59-3.90C49.41-3.94 49.21-3.96 48.99-3.96ZM48.93-1.98L48.28-1.98L48.28-3.55L48.93-3.55C49.28-3.55 49.53-3.50 49.70-3.39C49.87-3.28 49.95-3.08 49.95-2.79C49.95-2.51 49.87-2.31 49.70-2.17C49.54-2.04 49.28-1.98 48.93-1.98ZM51.26-3.96L51.26 0L51.76 0L51.76-1.57L52.47-1.57C52.69-1.57 52.89-1.59 53.06-1.64C53.24-1.69 53.40-1.77 53.53-1.87C53.65-1.97 53.75-2.10 53.82-2.25C53.89-2.40 53.93-2.58 53.93-2.79C53.93-3.01 53.89-3.19 53.82-3.34C53.75-3.49 53.66-3.61 53.53-3.70C53.40-3.79 53.25-3.86 53.07-3.90C52.89-3.94 52.69-3.96 52.47-3.96ZM52.41-1.98L51.76-1.98L51.76-3.55L52.41-3.55C52.75-3.55 53.01-3.50 53.18-3.39C53.34-3.28 53.43-3.08 53.43-2.79C53.43-2.51 53.35-2.31 53.18-2.17C53.01-2.04 52.76-1.98 52.41-1.98ZM54.73-3.96L54.73 0L56.96 0L56.96-0.43L55.23-0.43L55.23-3.96ZM57.66-3.96L57.66 0L58.17 0L58.17-3.96ZM59.02-1.98C59.02-1.66 59.07-1.37 59.15-1.11C59.24-0.86 59.36-0.64 59.51-0.47C59.67-0.29 59.85-0.16 60.06-0.07C60.27 0.03 60.50 0.07 60.75 0.07C61.01 0.07 61.23 0.02 61.43-0.08C61.63-0.18 61.80-0.32 61.96-0.50L61.68-0.81C61.55-0.67 61.41-0.56 61.27-0.48C61.13-0.41 60.96-0.37 60.77-0.37C60.58-0.37 60.41-0.41 60.26-0.48C60.10-0.56 59.98-0.67 59.87-0.81C59.77-0.95 59.69-1.12 59.63-1.32C59.57-1.52 59.54-1.74 59.54-1.99C59.54-2.24 59.57-2.46 59.63-2.65C59.69-2.85 59.78-3.02 59.88-3.16C59.99-3.30 60.12-3.40 60.28-3.48C60.43-3.55 60.60-3.59 60.79-3.59C60.96-3.59 61.11-3.56 61.23-3.49C61.36-3.42 61.48-3.33 61.58-3.22L61.86-3.54C61.75-3.67 61.60-3.78 61.42-3.88C61.24-3.98 61.02-4.03 60.78-4.03C60.53-4.03 60.30-3.98 60.08-3.89C59.87-3.79 59.68-3.66 59.52-3.48C59.37-3.30 59.24-3.09 59.15-2.84C59.07-2.58 59.02-2.30 59.02-1.98ZM64.38-1.61L63.19-1.61L63.38-2.21C63.45-2.44 63.52-2.66 63.58-2.87C63.65-3.09 63.71-3.32 63.77-3.55L63.79-3.55C63.86-3.32 63.92-3.09 63.99-2.87C64.05-2.66 64.12-2.44 64.19-2.21ZM64.51-1.21L64.88 0L65.42 0L64.08-3.96L63.51-3.96L62.17 0L62.68 0L63.06-1.21ZM66.56-3.54L66.56 0L67.06 0L67.06-3.54L68.26-3.54L68.26-3.96L65.36-3.96L65.36-3.54ZM68.97-3.96L68.97 0L69.47 0L69.47-3.96ZM72.02 0.07C72.27 0.07 72.49 0.02 72.70-0.07C72.91-0.17 73.09-0.31 73.24-0.49C73.39-0.66 73.51-0.88 73.59-1.14C73.67-1.39 73.71-1.68 73.71-2.00C73.71-2.31 73.67-2.59 73.59-2.84C73.51-3.10 73.39-3.31 73.24-3.48C73.09-3.66 72.91-3.79 72.70-3.89C72.49-3.98 72.27-4.03 72.02-4.03C71.77-4.03 71.54-3.98 71.33-3.89C71.13-3.80 70.95-3.67 70.80-3.49C70.65-3.32 70.53-3.10 70.45-2.85C70.37-2.60 70.33-2.31 70.33-2.00C70.33-1.68 70.37-1.39 70.45-1.14C70.53-0.88 70.65-0.66 70.80-0.49C70.95-0.31 71.13-0.17 71.33-0.07C71.54 0.02 71.77 0.07 72.02 0.07ZM72.02-0.37C71.84-0.37 71.68-0.41 71.54-0.48C71.39-0.56 71.27-0.67 71.17-0.81C71.07-0.95 70.99-1.13 70.93-1.32C70.87-1.52 70.85-1.75 70.85-2.00C70.85-2.24 70.87-2.46 70.93-2.66C70.99-2.86 71.07-3.02 71.17-3.16C71.27-3.30 71.39-3.40 71.54-3.48C71.68-3.55 71.84-3.59 72.02-3.59C72.19-3.59 72.35-3.55 72.50-3.48C72.64-3.40 72.76-3.30 72.86-3.16C72.97-3.02 73.05-2.86 73.10-2.66C73.16-2.46 73.19-2.24 73.19-2.00C73.19-1.75 73.16-1.52 73.10-1.32C73.05-1.13 72.97-0.95 72.86-0.81C72.76-0.67 72.64-0.56 72.50-0.48C72.35-0.41 72.19-0.37 72.02-0.37ZM74.56-3.96L74.56 0L75.04 0L75.04-2.07C75.04-2.28 75.03-2.49 75.02-2.69C75.00-2.90 74.99-3.11 74.97-3.31L75.00-3.31L75.43-2.49L76.86 0L77.38 0L77.38-3.96L76.90-3.96L76.90-1.91C76.90-1.70 76.91-1.49 76.93-1.28C76.94-1.06 76.95-0.85 76.96-0.65L76.94-0.65L76.51-1.47L75.08-3.96ZM79.69-3.96L79.69 0L80.70 0C81.00 0 81.26-0.05 81.49-0.14C81.72-0.23 81.91-0.36 82.07-0.53C82.23-0.70 82.34-0.91 82.42-1.16C82.50-1.40 82.54-1.68 82.54-2.00C82.54-2.63 82.39-3.11 82.07-3.45C81.75-3.79 81.29-3.96 80.67-3.96ZM80.64-0.41L80.19-0.41L80.19-3.55L80.64-3.55C81.10-3.55 81.45-3.41 81.68-3.15C81.91-2.88 82.03-2.50 82.03-2.00C82.03-1.49 81.91-1.10 81.68-0.83C81.45-0.55 81.10-0.41 80.64-0.41ZM83.40-3.96L83.40 0L85.74 0L85.74-0.43L83.90-0.43L83.90-1.86L85.40-1.86L85.40-2.29L83.90-2.29L83.90-3.54L85.68-3.54L85.68-3.96ZM86.59-0.86L86.29-0.51C86.46-0.33 86.66-0.19 86.90-0.08C87.14 0.02 87.40 0.07 87.67 0.07C87.88 0.07 88.07 0.04 88.23-0.02C88.40-0.07 88.54-0.15 88.66-0.26C88.77-0.36 88.86-0.48 88.92-0.62C88.99-0.75 89.02-0.90 89.02-1.06C89.02-1.20 89.00-1.33 88.96-1.44C88.91-1.55 88.86-1.65 88.78-1.73C88.71-1.81 88.62-1.88 88.52-1.95C88.42-2.01 88.32-2.06 88.20-2.11L87.64-2.35C87.56-2.39 87.48-2.42 87.41-2.46C87.33-2.50 87.26-2.54 87.20-2.59C87.13-2.64 87.08-2.70 87.04-2.77C87.00-2.83 86.99-2.91 86.99-3.01C86.99-3.19 87.05-3.33 87.19-3.44C87.32-3.54 87.50-3.59 87.72-3.59C87.91-3.59 88.07-3.56 88.22-3.49C88.37-3.42 88.50-3.33 88.62-3.22L88.89-3.54C88.75-3.69 88.58-3.80 88.38-3.89C88.18-3.98 87.96-4.03 87.72-4.03C87.54-4.03 87.37-4.00 87.22-3.95C87.07-3.90 86.94-3.83 86.83-3.73C86.72-3.64 86.63-3.53 86.57-3.40C86.51-3.27 86.48-3.13 86.48-2.98C86.48-2.84 86.50-2.71 86.55-2.60C86.60-2.49 86.66-2.39 86.74-2.31C86.81-2.23 86.90-2.16 87.00-2.11C87.09-2.05 87.19-2.00 87.28-1.96L87.85-1.71C87.94-1.67 88.03-1.63 88.11-1.59C88.19-1.55 88.26-1.50 88.32-1.45C88.37-1.40 88.42-1.34 88.45-1.27C88.49-1.20 88.51-1.11 88.51-1.01C88.51-0.82 88.43-0.66 88.29-0.55C88.14-0.43 87.94-0.37 87.68-0.37C87.47-0.37 87.28-0.41 87.08-0.50C86.89-0.59 86.73-0.71 86.59-0.86ZM89.80-3.96L89.80 0L90.30 0L90.30-3.96ZM91.15-1.98C91.15-1.66 91.20-1.37 91.29-1.11C91.38-0.86 91.50-0.64 91.65-0.47C91.81-0.29 92.00-0.16 92.22-0.07C92.43 0.03 92.67 0.07 92.93 0.07C93.20 0.07 93.44 0.03 93.65-0.06C93.86-0.14 94.03-0.25 94.16-0.39L94.16-2.05L92.86-2.05L92.86-1.63L93.70-1.63L93.70-0.60C93.62-0.53 93.52-0.47 93.39-0.43C93.26-0.39 93.13-0.37 92.99-0.37C92.78-0.37 92.59-0.41 92.42-0.48C92.26-0.56 92.12-0.67 92.01-0.81C91.90-0.95 91.82-1.12 91.76-1.32C91.70-1.52 91.67-1.74 91.67-1.99C91.67-2.24 91.70-2.46 91.77-2.65C91.83-2.85 91.92-3.02 92.03-3.16C92.14-3.30 92.28-3.40 92.44-3.48C92.60-3.55 92.78-3.59 92.98-3.59C93.18-3.59 93.35-3.55 93.48-3.48C93.61-3.41 93.73-3.33 93.83-3.22L94.11-3.54C93.99-3.66 93.84-3.77 93.66-3.88C93.48-3.98 93.25-4.03 92.98-4.03C92.71-4.03 92.47-3.98 92.25-3.89C92.02-3.79 91.83-3.66 91.67-3.48C91.51-3.30 91.38-3.09 91.29-2.84C91.20-2.58 91.15-2.30 91.15-1.98ZM95.11-3.96L95.11 0L95.58 0L95.58-2.07C95.58-2.28 95.58-2.49 95.56-2.69C95.55-2.90 95.53-3.11 95.52-3.31L95.54-3.31L95.97-2.49L97.40 0L97.92 0L97.92-3.96L97.45-3.96L97.45-1.91C97.45-1.70 97.45-1.49 97.47-1.28C97.48-1.06 97.49-0.85 97.51-0.65L97.48-0.65L97.05-1.47L95.62-3.96ZM99.01-3.96L99.01 0L101.35 0L101.35-0.43L99.51-0.43L99.51-1.86L101.01-1.86L101.01-2.29L99.51-2.29L99.51-3.54L101.29-3.54L101.29-3.96ZM102.19-3.96L102.19 0L103.20 0C103.50 0 103.76-0.05 103.99-0.14C104.22-0.23 104.41-0.36 104.57-0.53C104.73-0.70 104.85-0.91 104.93-1.16C105.01-1.40 105.05-1.68 105.05-2.00C105.05-2.63 104.89-3.11 104.57-3.45C104.25-3.79 103.79-3.96 103.18-3.96ZM103.14-0.41L102.69-0.41L102.69-3.55L103.14-3.55C103.60-3.55 103.95-3.41 104.18-3.15C104.41-2.88 104.53-2.50 104.53-2.00C104.53-1.49 104.41-1.10 104.18-0.83C103.95-0.55 103.60-0.41 103.14-0.41ZM107.12-3.96L107.12 0L107.62 0L107.62-1.77L109.13-1.77L109.13-2.20L107.62-2.20L107.62-3.54L109.40-3.54L109.40-3.96ZM111.50 0.07C111.75 0.07 111.98 0.02 112.18-0.07C112.39-0.17 112.57-0.31 112.72-0.49C112.87-0.66 112.99-0.88 113.07-1.14C113.15-1.39 113.19-1.68 113.19-2.00C113.19-2.31 113.15-2.59 113.07-2.84C112.99-3.10 112.87-3.31 112.72-3.48C112.57-3.66 112.39-3.79 112.18-3.89C111.98-3.98 111.75-4.03 111.50-4.03C111.25-4.03 111.02-3.98 110.81-3.89C110.61-3.80 110.43-3.67 110.28-3.49C110.13-3.32 110.01-3.10 109.93-2.85C109.85-2.60 109.81-2.31 109.81-2.00C109.81-1.68 109.85-1.39 109.93-1.14C110.01-0.88 110.13-0.66 110.28-0.49C110.43-0.31 110.61-0.17 110.81-0.07C111.02 0.02 111.25 0.07 111.50 0.07ZM111.50-0.37C111.32-0.37 111.16-0.41 111.02-0.48C110.88-0.56 110.75-0.67 110.65-0.81C110.55-0.95 110.47-1.13 110.41-1.32C110.36-1.52 110.33-1.75 110.33-2.00C110.33-2.24 110.36-2.46 110.41-2.66C110.47-2.86 110.55-3.02 110.65-3.16C110.75-3.30 110.88-3.40 111.02-3.48C111.16-3.55 111.32-3.59 111.50-3.59C111.67-3.59 111.83-3.55 111.98-3.48C112.12-3.40 112.24-3.30 112.35-3.16C112.45-3.02 112.53-2.86 112.58-2.66C112.64-2.46 112.67-2.24 112.67-2.00C112.67-1.75 112.64-1.52 112.58-1.32C112.53-1.13 112.45-0.95 112.35-0.81C112.24-0.67 112.12-0.56 111.98-0.48C111.83-0.41 111.67-0.37 111.50-0.37ZM114.54-2.08L114.54-3.55L115.21-3.55C115.52-3.55 115.76-3.50 115.92-3.40C116.08-3.29 116.17-3.11 116.17-2.85C116.17-2.59 116.08-2.40 115.92-2.27C115.76-2.14 115.52-2.08 115.21-2.08ZM116.22 0L116.78 0L115.78-1.73C116.05-1.79 116.27-1.92 116.43-2.11C116.59-2.29 116.67-2.54 116.67-2.85C116.67-3.05 116.63-3.23 116.57-3.37C116.50-3.51 116.40-3.62 116.28-3.71C116.16-3.80 116.01-3.86 115.84-3.90C115.67-3.94 115.48-3.96 115.28-3.96L114.04-3.96L114.04 0L114.54 0L114.54-1.67L115.26-1.67ZM118.78-0.86L118.48-0.51C118.65-0.33 118.86-0.19 119.09-0.08C119.33 0.02 119.59 0.07 119.87 0.07C120.07 0.07 120.26 0.04 120.43-0.02C120.59-0.07 120.73-0.15 120.85-0.26C120.97-0.36 121.06-0.48 121.12-0.62C121.18-0.75 121.21-0.90 121.21-1.06C121.21-1.20 121.19-1.33 121.15-1.44C121.11-1.55 121.05-1.65 120.98-1.73C120.90-1.81 120.82-1.88 120.72-1.95C120.62-2.01 120.51-2.06 120.40-2.11L119.84-2.35C119.76-2.39 119.68-2.42 119.60-2.46C119.52-2.50 119.45-2.54 119.39-2.59C119.32-2.64 119.27-2.70 119.24-2.77C119.20-2.83 119.18-2.91 119.18-3.01C119.18-3.19 119.25-3.33 119.38-3.44C119.51-3.54 119.69-3.59 119.91-3.59C120.10-3.59 120.26-3.56 120.41-3.49C120.56-3.42 120.69-3.33 120.81-3.22L121.08-3.54C120.94-3.69 120.77-3.80 120.57-3.89C120.37-3.98 120.15-4.03 119.91-4.03C119.73-4.03 119.57-4.00 119.42-3.95C119.27-3.90 119.13-3.83 119.02-3.73C118.91-3.64 118.83-3.53 118.76-3.40C118.70-3.27 118.67-3.13 118.67-2.98C118.67-2.84 118.70-2.71 118.74-2.60C118.79-2.49 118.85-2.39 118.93-2.31C119.01-2.23 119.09-2.16 119.19-2.11C119.29-2.05 119.38-2.00 119.47-1.96L120.04-1.71C120.13-1.67 120.22-1.63 120.30-1.59C120.38-1.55 120.45-1.50 120.51-1.45C120.57-1.40 120.61-1.34 120.65-1.27C120.68-1.20 120.70-1.11 120.70-1.01C120.70-0.82 120.63-0.66 120.48-0.55C120.34-0.43 120.13-0.37 119.87-0.37C119.67-0.37 119.47-0.41 119.28-0.50C119.09-0.59 118.92-0.71 118.78-0.86ZM121.76-1.98C121.76-1.66 121.80-1.37 121.89-1.11C121.98-0.86 122.10-0.64 122.25-0.47C122.41-0.29 122.59-0.16 122.80-0.07C123.01 0.03 123.24 0.07 123.49 0.07C123.74 0.07 123.97 0.02 124.17-0.08C124.36-0.18 124.54-0.32 124.70-0.50L124.41-0.81C124.29-0.67 124.15-0.56 124.01-0.48C123.86-0.41 123.70-0.37 123.50-0.37C123.31-0.37 123.14-0.41 122.99-0.48C122.84-0.56 122.72-0.67 122.61-0.81C122.51-0.95 122.42-1.12 122.37-1.32C122.31-1.52 122.28-1.74 122.28-1.99C122.28-2.24 122.31-2.46 122.37-2.65C122.43-2.85 122.51-3.02 122.62-3.16C122.73-3.30 122.86-3.40 123.01-3.48C123.17-3.55 123.34-3.59 123.53-3.59C123.70-3.59 123.84-3.56 123.97-3.49C124.10-3.42 124.21-3.33 124.32-3.22L124.60-3.54C124.49-3.67 124.34-3.78 124.16-3.88C123.97-3.98 123.76-4.03 123.52-4.03C123.27-4.03 123.03-3.98 122.82-3.89C122.60-3.79 122.42-3.66 122.26-3.48C122.10-3.30 121.98-3.09 121.89-2.84C121.80-2.58 121.76-2.30 121.76-1.98ZM125.43-3.96L125.43 0L125.93 0L125.93-1.86L127.78-1.86L127.78 0L128.28 0L128.28-3.96L127.78-3.96L127.78-2.30L125.93-2.30L125.93-3.96ZM129.37-3.96L129.37 0L131.71 0L131.71-0.43L129.87-0.43L129.87-1.86L131.37-1.86L131.37-2.29L129.87-2.29L129.87-3.54L131.65-3.54L131.65-3.96ZM132.55-3.96L132.55 0L133.56 0C133.86 0 134.12-0.05 134.35-0.14C134.58-0.23 134.77-0.36 134.93-0.53C135.09-0.70 135.21-0.91 135.29-1.16C135.37-1.40 135.41-1.68 135.41-2.00C135.41-2.63 135.25-3.11 134.93-3.45C134.61-3.79 134.15-3.96 133.54-3.96ZM133.50-0.41L133.05-0.41L133.05-3.55L133.50-3.55C133.96-3.55 134.31-3.41 134.54-3.15C134.77-2.88 134.89-2.50 134.89-2.00C134.89-1.49 134.77-1.10 134.54-0.83C134.31-0.55 133.96-0.41 133.50-0.41ZM136.24-3.96L136.24-1.63C136.24-1.32 136.28-1.05 136.35-0.83C136.42-0.62 136.52-0.44 136.65-0.30C136.77-0.17 136.92-0.07 137.10-0.02C137.27 0.04 137.46 0.07 137.66 0.07C137.86 0.07 138.05 0.04 138.22-0.02C138.40-0.07 138.55-0.17 138.67-0.30C138.80-0.44 138.90-0.62 138.97-0.83C139.04-1.05 139.08-1.32 139.08-1.63L139.08-3.96L138.60-3.96L138.60-1.62C138.60-1.39 138.57-1.19 138.53-1.03C138.48-0.86 138.41-0.74 138.33-0.64C138.24-0.54 138.14-0.47 138.03-0.43C137.92-0.39 137.80-0.37 137.66-0.37C137.53-0.37 137.41-0.39 137.30-0.43C137.19-0.47 137.09-0.54 137.01-0.64C136.93-0.74 136.86-0.86 136.81-1.03C136.76-1.19 136.74-1.39 136.74-1.62L136.74-3.96ZM140.15-3.96L140.15 0L142.38 0L142.38-0.43L140.65-0.43L140.65-3.96ZM143.08-3.96L143.08 0L143.58 0L143.58-3.96ZM144.67-3.96L144.67 0L145.14 0L145.14-2.07C145.14-2.28 145.14-2.49 145.12-2.69C145.11-2.90 145.09-3.11 145.08-3.31L145.10-3.31L145.53-2.49L146.97 0L147.49 0L147.49-3.96L147.01-3.96L147.01-1.91C147.01-1.70 147.02-1.49 147.03-1.28C147.04-1.06 147.06-0.85 147.07-0.65L147.04-0.65L146.62-1.47L145.19-3.96ZM148.34-1.98C148.34-1.66 148.39-1.37 148.47-1.11C148.56-0.86 148.69-0.64 148.84-0.47C149.00-0.29 149.19-0.16 149.40-0.07C149.62 0.03 149.86 0.07 150.12 0.07C150.39 0.07 150.63 0.03 150.84-0.06C151.05-0.14 151.22-0.25 151.35-0.39L151.35-2.05L150.05-2.05L150.05-1.63L150.89-1.63L150.89-0.60C150.81-0.53 150.70-0.47 150.58-0.43C150.45-0.39 150.32-0.37 150.18-0.37C149.96-0.37 149.77-0.41 149.61-0.48C149.45-0.56 149.31-0.67 149.20-0.81C149.09-0.95 149.01-1.12 148.95-1.32C148.89-1.52 148.86-1.74 148.86-1.99C148.86-2.24 148.89-2.46 148.95-2.65C149.02-2.85 149.10-3.02 149.22-3.16C149.33-3.30 149.47-3.40 149.63-3.48C149.79-3.55 149.97-3.59 150.17-3.59C150.37-3.59 150.54-3.55 150.67-3.48C150.80-3.41 150.91-3.33 151.01-3.22L151.30-3.54C151.18-3.66 151.03-3.77 150.85-3.88C150.67-3.98 150.44-4.03 150.16-4.03C149.90-4.03 149.66-3.98 149.43-3.89C149.21-3.79 149.02-3.66 148.86-3.48C148.69-3.30 148.57-3.09 148.48-2.84C148.39-2.58 148.34-2.30 148.34-1.98ZM153.51-3.96L153.51 0L155.74 0L155.74-0.43L154.01-0.43L154.01-3.96ZM158.15-1.61L156.96-1.61L157.14-2.21C157.22-2.44 157.29-2.66 157.35-2.87C157.41-3.09 157.48-3.32 157.54-3.55L157.56-3.55C157.62-3.32 157.69-3.09 157.75-2.87C157.82-2.66 157.89-2.44 157.96-2.21ZM158.27-1.21L158.65 0L159.18 0L157.84-3.96L157.28-3.96L155.94 0L156.45 0L156.83-1.21ZM159.74-3.96L159.74 0L161.01 0C161.23 0 161.43-0.02 161.61-0.07C161.80-0.12 161.96-0.19 162.09-0.29C162.22-0.39 162.33-0.51 162.40-0.65C162.47-0.80 162.51-0.97 162.51-1.16C162.51-1.43 162.43-1.65 162.27-1.80C162.11-1.96 161.88-2.06 161.59-2.11L161.59-2.13C161.82-2.19 162.00-2.30 162.11-2.46C162.22-2.62 162.28-2.80 162.28-2.99C162.28-3.17 162.25-3.31 162.18-3.44C162.11-3.56 162.02-3.66 161.90-3.73C161.78-3.81 161.64-3.87 161.47-3.90C161.31-3.94 161.12-3.96 160.92-3.96ZM160.83-2.27L160.25-2.27L160.25-3.56L160.85-3.56C161.16-3.56 161.40-3.51 161.55-3.42C161.71-3.32 161.78-3.17 161.78-2.95C161.78-2.73 161.71-2.56 161.56-2.44C161.42-2.33 161.17-2.27 160.83-2.27ZM160.93-0.40L160.25-0.40L160.25-1.89L160.93-1.89C161.28-1.89 161.55-1.84 161.74-1.72C161.92-1.61 162.01-1.43 162.01-1.18C162.01-0.91 161.92-0.71 161.73-0.59C161.54-0.46 161.27-0.40 160.93-0.40ZM164.75 0.07C165.00 0.07 165.23 0.02 165.44-0.07C165.64-0.17 165.82-0.31 165.97-0.49C166.12-0.66 166.24-0.88 166.32-1.14C166.41-1.39 166.45-1.68 166.45-2.00C166.45-2.31 166.41-2.59 166.32-2.84C166.24-3.10 166.12-3.31 165.97-3.48C165.82-3.66 165.64-3.79 165.44-3.89C165.23-3.98 165.00-4.03 164.75-4.03C164.50-4.03 164.27-3.98 164.07-3.89C163.86-3.80 163.68-3.67 163.53-3.49C163.38-3.32 163.27-3.10 163.19-2.85C163.10-2.60 163.06-2.31 163.06-2.00C163.06-1.68 163.10-1.39 163.19-1.14C163.27-0.88 163.38-0.66 163.53-0.49C163.68-0.31 163.86-0.17 164.07-0.07C164.27 0.02 164.50 0.07 164.75 0.07ZM164.75-0.37C164.58-0.37 164.42-0.41 164.27-0.48C164.13-0.56 164.01-0.67 163.90-0.81C163.80-0.95 163.72-1.13 163.67-1.32C163.61-1.52 163.58-1.75 163.58-2.00C163.58-2.24 163.61-2.46 163.67-2.66C163.72-2.86 163.80-3.02 163.90-3.16C164.01-3.30 164.13-3.40 164.27-3.48C164.42-3.55 164.58-3.59 164.75-3.59C164.93-3.59 165.09-3.55 165.23-3.48C165.37-3.40 165.50-3.30 165.60-3.16C165.70-3.02 165.78-2.86 165.84-2.66C165.89-2.46 165.92-2.24 165.92-2.00C165.92-1.75 165.89-1.52 165.84-1.32C165.78-1.13 165.70-0.95 165.60-0.81C165.50-0.67 165.37-0.56 165.23-0.48C165.09-0.41 164.93-0.37 164.75-0.37ZM167.80-2.08L167.80-3.55L168.46-3.55C168.77-3.55 169.01-3.50 169.17-3.40C169.34-3.29 169.42-3.11 169.42-2.85C169.42-2.59 169.34-2.40 169.17-2.27C169.01-2.14 168.77-2.08 168.46-2.08ZM169.47 0L170.04 0L169.04-1.73C169.30-1.79 169.52-1.92 169.68-2.11C169.84-2.29 169.92-2.54 169.92-2.85C169.92-3.05 169.89-3.23 169.82-3.37C169.75-3.51 169.66-3.62 169.53-3.71C169.41-3.80 169.26-3.86 169.09-3.90C168.92-3.94 168.74-3.96 168.53-3.96L167.30-3.96L167.30 0L167.80 0L167.80-1.67L168.52-1.67ZM172.43-1.61L171.24-1.61L171.42-2.21C171.50-2.44 171.57-2.66 171.63-2.87C171.69-3.09 171.76-3.32 171.82-3.55L171.84-3.55C171.91-3.32 171.97-3.09 172.03-2.87C172.10-2.66 172.17-2.44 172.24-2.21ZM172.55-1.21L172.93 0L173.46 0L172.12-3.96L171.56-3.96L170.22 0L170.73 0L171.11-1.21ZM174.60-3.54L174.60 0L175.11 0L175.11-3.54L176.31-3.54L176.31-3.96L173.41-3.96L173.41-3.54ZM178.33 0.07C178.58 0.07 178.81 0.02 179.02-0.07C179.22-0.17 179.40-0.31 179.55-0.49C179.71-0.66 179.82-0.88 179.90-1.14C179.99-1.39 180.03-1.68 180.03-2.00C180.03-2.31 179.99-2.59 179.90-2.84C179.82-3.10 179.71-3.31 179.55-3.48C179.40-3.66 179.22-3.79 179.02-3.89C178.81-3.98 178.58-4.03 178.33-4.03C178.08-4.03 177.85-3.98 177.65-3.89C177.44-3.80 177.26-3.67 177.11-3.49C176.96-3.32 176.85-3.10 176.77-2.85C176.68-2.60 176.64-2.31 176.64-2.00C176.64-1.68 176.68-1.39 176.77-1.14C176.85-0.88 176.96-0.66 177.11-0.49C177.26-0.31 177.44-0.17 177.65-0.07C177.85 0.02 178.08 0.07 178.33 0.07ZM178.33-0.37C178.16-0.37 178.00-0.41 177.85-0.48C177.71-0.56 177.59-0.67 177.48-0.81C177.38-0.95 177.30-1.13 177.25-1.32C177.19-1.52 177.16-1.75 177.16-2.00C177.16-2.24 177.19-2.46 177.25-2.66C177.30-2.86 177.38-3.02 177.48-3.16C177.59-3.30 177.71-3.40 177.85-3.48C178.00-3.55 178.16-3.59 178.33-3.59C178.51-3.59 178.67-3.55 178.81-3.48C178.95-3.40 179.08-3.30 179.18-3.16C179.28-3.02 179.36-2.86 179.42-2.66C179.47-2.46 179.50-2.24 179.50-2.00C179.50-1.75 179.47-1.52 179.42-1.32C179.36-1.13 179.28-0.95 179.18-0.81C179.08-0.67 178.95-0.56 178.81-0.48C178.67-0.41 178.51-0.37 178.33-0.37ZM181.38-2.08L181.38-3.55L182.04-3.55C182.35-3.55 182.59-3.50 182.75-3.40C182.92-3.29 183.00-3.11 183.00-2.85C183.00-2.59 182.92-2.40 182.75-2.27C182.59-2.14 182.35-2.08 182.04-2.08ZM183.05 0L183.62 0L182.62-1.73C182.89-1.79 183.10-1.92 183.26-2.11C183.42-2.29 183.50-2.54 183.50-2.85C183.50-3.05 183.47-3.23 183.40-3.37C183.33-3.51 183.24-3.62 183.11-3.71C182.99-3.80 182.84-3.86 182.67-3.90C182.50-3.94 182.32-3.96 182.12-3.96L180.88-3.96L180.88 0L181.38 0L181.38-1.67L182.10-1.67ZM184.94-1.53L184.94 0L185.45 0L185.45-1.53L186.63-3.96L186.11-3.96L185.60-2.84C185.54-2.70 185.48-2.55 185.41-2.41C185.34-2.27 185.27-2.13 185.20-1.98L185.18-1.98C185.11-2.13 185.05-2.27 184.99-2.41C184.93-2.55 184.86-2.70 184.80-2.84L184.29-3.96L183.75-3.96ZM190.07-1.61L188.88-1.61L189.07-2.21C189.14-2.44 189.21-2.66 189.28-2.87C189.34-3.09 189.40-3.32 189.46-3.55L189.49-3.55C189.55-3.32 189.62-3.09 189.68-2.87C189.75-2.66 189.81-2.44 189.89-2.21ZM190.20-1.21L190.57 0L191.11 0L189.77-3.96L189.20-3.96L187.86 0L188.38 0L188.76-1.21ZM191.67-3.96L191.67 0L192.17 0L192.17-1.57L192.88-1.57C193.10-1.57 193.30-1.59 193.48-1.64C193.66-1.69 193.81-1.77 193.94-1.87C194.07-1.97 194.17-2.10 194.24-2.25C194.31-2.40 194.34-2.58 194.34-2.79C194.34-3.01 194.31-3.19 194.24-3.34C194.17-3.49 194.07-3.61 193.94-3.70C193.82-3.79 193.66-3.86 193.48-3.90C193.30-3.94 193.10-3.96 192.88-3.96ZM192.82-1.98L192.17-1.98L192.17-3.55L192.82-3.55C193.17-3.55 193.42-3.50 193.59-3.39C193.76-3.28 193.84-3.08 193.84-2.79C193.84-2.51 193.76-2.31 193.59-2.17C193.43-2.04 193.17-1.98 192.82-1.98ZM195.15-3.96L195.15 0L195.65 0L195.65-1.57L196.36-1.57C196.58-1.57 196.77-1.59 196.95-1.64C197.13-1.69 197.29-1.77 197.42-1.87C197.54-1.97 197.64-2.10 197.71-2.25C197.78-2.40 197.82-2.58 197.82-2.79C197.82-3.01 197.78-3.19 197.71-3.34C197.64-3.49 197.54-3.61 197.42-3.70C197.29-3.79 197.14-3.86 196.96-3.90C196.78-3.94 196.58-3.96 196.36-3.96ZM196.30-1.98L195.65-1.98L195.65-3.55L196.30-3.55C196.64-3.55 196.90-3.50 197.07-3.39C197.23-3.28 197.32-3.08 197.32-2.79C197.32-2.51 197.24-2.31 197.07-2.17C196.90-2.04 196.64-1.98 196.30-1.98ZM200.08 0.07C200.33 0.07 200.56 0.02 200.77-0.07C200.97-0.17 201.15-0.31 201.30-0.49C201.45-0.66 201.57-0.88 201.65-1.14C201.74-1.39 201.78-1.68 201.78-2.00C201.78-2.31 201.74-2.59 201.65-2.84C201.57-3.10 201.45-3.31 201.30-3.48C201.15-3.66 200.97-3.79 200.77-3.89C200.56-3.98 200.33-4.03 200.08-4.03C199.83-4.03 199.60-3.98 199.40-3.89C199.19-3.80 199.01-3.67 198.86-3.49C198.71-3.32 198.60-3.10 198.52-2.85C198.43-2.60 198.39-2.31 198.39-2.00C198.39-1.68 198.43-1.39 198.52-1.14C198.60-0.88 198.71-0.66 198.86-0.49C199.01-0.31 199.19-0.17 199.40-0.07C199.60 0.02 199.83 0.07 200.08 0.07ZM200.08-0.37C199.90-0.37 199.74-0.41 199.60-0.48C199.46-0.56 199.34-0.67 199.23-0.81C199.13-0.95 199.05-1.13 199.00-1.32C198.94-1.52 198.91-1.75 198.91-2.00C198.91-2.24 198.94-2.46 199.00-2.66C199.05-2.86 199.13-3.02 199.23-3.16C199.34-3.30 199.46-3.40 199.60-3.48C199.74-3.55 199.90-3.59 200.08-3.59C200.26-3.59 200.42-3.55 200.56-3.48C200.70-3.40 200.83-3.30 200.93-3.16C201.03-3.02 201.11-2.86 201.17-2.66C201.22-2.46 201.25-2.24 201.25-2.00C201.25-1.75 201.22-1.52 201.17-1.32C201.11-1.13 201.03-0.95 200.93-0.81C200.83-0.67 200.70-0.56 200.56-0.48C200.42-0.41 200.26-0.37 200.08-0.37ZM202.63-3.96L202.63 0L203.13 0L203.13-3.96ZM204.21-3.96L204.21 0L204.69 0L204.69-2.07C204.69-2.28 204.68-2.49 204.67-2.69C204.66-2.90 204.64-3.11 204.62-3.31L204.65-3.31L205.08-2.49L206.51 0L207.03 0L207.03-3.96L206.56-3.96L206.56-1.91C206.56-1.70 206.56-1.49 206.58-1.28C206.59-1.06 206.60-0.85 206.62-0.65L206.59-0.65L206.16-1.47L204.73-3.96ZM208.94-3.54L208.94 0L209.45 0L209.45-3.54L210.64-3.54L210.64-3.96L207.74-3.96L207.74-3.54ZM211.35-3.96L211.35 0L211.82 0L211.82-2.18C211.82-2.35 211.81-2.55 211.79-2.76C211.78-2.98 211.76-3.17 211.75-3.35L211.77-3.35L212.09-2.47L212.85-0.40L213.14-0.40L213.90-2.47L214.22-3.35L214.24-3.35C214.23-3.17 214.21-2.98 214.20-2.76C214.18-2.55 214.18-2.35 214.18-2.18L214.18 0L214.65 0L214.65-3.96L214.06-3.96L213.30-1.83L213.02-1.03L213.00-1.03L212.71-1.83L211.94-3.96ZM215.74-3.96L215.74 0L218.08 0L218.08-0.43L216.24-0.43L216.24-1.86L217.74-1.86L217.74-2.29L216.24-2.29L216.24-3.54L218.02-3.54L218.02-3.96ZM218.92-3.96L218.92 0L219.39 0L219.39-2.07C219.39-2.28 219.39-2.49 219.37-2.69C219.36-2.90 219.34-3.11 219.33-3.31L219.35-3.31L219.78-2.49L221.22 0L221.73 0L221.73-3.96L221.26-3.96L221.26-1.91C221.26-1.70 221.27-1.49 221.28-1.28C221.29-1.06 221.31-0.85 221.32-0.65L221.29-0.65L220.87-1.47L219.44-3.96ZM223.64-3.54L223.64 0L224.15 0L224.15-3.54L225.34-3.54L225.34-3.96L222.45-3.96L222.45-3.54ZM225.83-0.86L225.53-0.51C225.70-0.33 225.91-0.19 226.14-0.08C226.38 0.02 226.64 0.07 226.92 0.07C227.13 0.07 227.31 0.04 227.48-0.02C227.64-0.07 227.78-0.15 227.90-0.26C228.02-0.36 228.11-0.48 228.17-0.62C228.23-0.75 228.26-0.90 228.26-1.06C228.26-1.20 228.24-1.33 228.20-1.44C228.16-1.55 228.10-1.65 228.03-1.73C227.95-1.81 227.87-1.88 227.77-1.95C227.67-2.01 227.56-2.06 227.45-2.11L226.89-2.35C226.81-2.39 226.73-2.42 226.65-2.46C226.58-2.50 226.50-2.54 226.44-2.59C226.38-2.64 226.32-2.70 226.29-2.77C226.25-2.83 226.23-2.91 226.23-3.01C226.23-3.19 226.30-3.33 226.43-3.44C226.57-3.54 226.74-3.59 226.97-3.59C227.15-3.59 227.32-3.56 227.46-3.49C227.61-3.42 227.74-3.33 227.86-3.22L228.14-3.54C227.99-3.69 227.82-3.80 227.62-3.89C227.42-3.98 227.20-4.03 226.97-4.03C226.78-4.03 226.62-4.00 226.47-3.95C226.32-3.90 226.19-3.83 226.08-3.73C225.96-3.64 225.88-3.53 225.82-3.40C225.75-3.27 225.72-3.13 225.72-2.98C225.72-2.84 225.75-2.71 225.79-2.60C225.84-2.49 225.91-2.39 225.98-2.31C226.06-2.23 226.14-2.16 226.24-2.11C226.34-2.05 226.43-2.00 226.52-1.96L227.09-1.71C227.18-1.67 227.27-1.63 227.35-1.59C227.43-1.55 227.50-1.50 227.56-1.45C227.62-1.40 227.66-1.34 227.70-1.27C227.73-1.20 227.75-1.11 227.75-1.01C227.75-0.82 227.68-0.66 227.53-0.55C227.39-0.43 227.18-0.37 226.92-0.37C226.72-0.37 226.52-0.41 226.33-0.50C226.14-0.59 225.97-0.71 225.83-0.86ZM228.89-0.30C228.89-0.19 228.93-0.10 229.00-0.03C229.07 0.04 229.15 0.07 229.25 0.07C229.35 0.07 229.43 0.04 229.50-0.03C229.57-0.10 229.61-0.19 229.61-0.30C229.61-0.42 229.57-0.51 229.50-0.58C229.43-0.65 229.35-0.69 229.25-0.69C229.15-0.69 229.07-0.65 229.00-0.58C228.93-0.51 228.89-0.42 228.89-0.30Z" transform="translate(-0.018099310127744406, 4.030113055111087)"></path>
                    </g>
                </g>
            </g>
        </g>
    </g>
    <mask id="66829926-63b6-4d82-a883-b64fb50fc5a9">
        <g>
            <g fill="#fff">
                <polyline x="0" y="0" data-gra="graph-name" points="0,0 58.39999771118164,0 0,58.39999771118164, 0,0"></polyline>
                <rect data-gra="graph-name"></rect>
            </g>
            <g data-gra="path-name" fill-rule="" class="tp-name" transform="translate(10,5)" stroke="#000" stroke-width="3" fill="#000">
                <g transform="scale(1)">
                    <g>
                        <path d="M23.74 0L22.19-4.71 11.8-4.71 10.26 0 0 0 11.41-31.18 22.68-31.18 34.04 0 23.74 0ZM14.18-12.07L19.82-12.07 17-20.74 14.18-12.07ZM46.02-21.45Q46.94-23.16 48.68-24.15 50.42-25.14 52.84-25.14L52.84-25.14Q55.75-25.14 58.08-23.63 60.42-22.11 61.76-19.22 63.1-16.34 63.1-12.42L63.1-12.42Q63.1-8.5 61.76-5.61 60.42-2.73 58.08-1.21 55.75 0.31 52.84 0.31L52.84 0.31Q50.42 0.31 48.68-0.68 46.94-1.67 46.02-3.39L46.02-3.39 46.02 11.89 36.24 11.89 36.24-24.84 46.02-24.84 46.02-21.45ZM53.2-12.42Q53.2-14.4 52.18-15.5 51.17-16.6 49.58-16.6L49.58-16.6Q48-16.6 46.99-15.5 45.97-14.4 45.97-12.42L45.97-12.42Q45.97-10.44 46.99-9.34 48-8.23 49.58-8.23L49.58-8.23Q51.17-8.23 52.18-9.34 53.2-10.44 53.2-12.42L53.2-12.42ZM75.96-21.45Q76.89-23.16 78.63-24.15 80.37-25.14 82.79-25.14L82.79-25.14Q85.69-25.14 88.03-23.63 90.36-22.11 91.7-19.22 93.05-16.34 93.05-12.42L93.05-12.42Q93.05-8.5 91.7-5.61 90.36-2.73 88.03-1.21 85.69 0.31 82.79 0.31L82.79 0.31Q80.37 0.31 78.63-0.68 76.89-1.67 75.96-3.39L75.96-3.39 75.96 11.89 66.19 11.89 66.19-24.84 75.96-24.84 75.96-21.45ZM83.14-12.42Q83.14-14.4 82.13-15.5 81.11-16.6 79.53-16.6L79.53-16.6Q77.94-16.6 76.93-15.5 75.92-14.4 75.92-12.42L75.92-12.42Q75.92-10.44 76.93-9.34 77.94-8.23 79.53-8.23L79.53-8.23Q81.11-8.23 82.13-9.34 83.14-10.44 83.14-12.42L83.14-12.42ZM107.93 0.31Q104.19 0.31 101.19-1.23 98.2-2.77 96.5-5.66 94.81-8.54 94.81-12.42L94.81-12.42Q94.81-16.29 96.5-19.18 98.2-22.06 101.19-23.6 104.19-25.14 107.93-25.14L107.93-25.14Q111.68-25.14 114.67-23.6 117.66-22.06 119.36-19.18 121.05-16.29 121.05-12.42L121.05-12.42Q121.05-8.54 119.36-5.66 117.66-2.77 114.67-1.23 111.68 0.31 107.93 0.31L107.93 0.31ZM107.93-8.15Q109.3-8.15 110.22-9.23 111.15-10.3 111.15-12.42L111.15-12.42Q111.15-14.53 110.22-15.61 109.3-16.69 107.93-16.69L107.93-16.69Q106.57-16.69 105.64-15.61 104.72-14.53 104.72-12.42L104.72-12.42Q104.72-10.3 105.62-9.23 106.52-8.15 107.93-8.15L107.93-8.15ZM129.07-26.82Q126.52-26.82 124.97-28.18 123.43-29.55 123.43-31.62L123.43-31.62Q123.43-33.73 124.97-35.12 126.52-36.51 129.07-36.51L129.07-36.51Q131.58-36.51 133.12-35.12 134.66-33.73 134.66-31.62L134.66-31.62Q134.66-29.55 133.12-28.18 131.58-26.82 129.07-26.82L129.07-26.82ZM124.14-24.84L133.91-24.84 133.91 0 124.14 0 124.14-24.84ZM155.71-25.01Q159.98-25.01 162.38-22.15 164.78-19.29 164.78-14.4L164.78-14.4 164.78 0 155.05 0 155.05-13.17Q155.05-14.93 154.1-15.96 153.16-17 151.57-17L151.57-17Q149.94-17 149.02-15.96 148.09-14.93 148.09-13.17L148.09-13.17 148.09 0 138.32 0 138.32-24.84 148.09-24.84 148.09-21.05Q149.24-22.81 151.15-23.91 153.07-25.01 155.71-25.01L155.71-25.01ZM182.13-8.32L184.47-8.32 184.47 0 180.77 0Q170.55 0 170.55-10.17L170.55-10.17 170.55-16.69 167.47-16.69 167.47-24.84 170.55-24.84 170.55-30.83 180.33-30.83 180.33-24.84 184.38-24.84 184.38-16.69 180.33-16.69 180.33-10Q180.33-9.12 180.75-8.72 181.16-8.32 182.13-8.32L182.13-8.32ZM188.21-32.59L197.99-32.59 197.99 0 188.21 0 188.21-32.59ZM219.65-24.84L230.44-24.84 214.54 11.89 203.84 11.89 210.1-1.23 199.75-24.84 210.62-24.84 215.29-12.24 219.65-24.84Z" transform="translate(0, 36.5099983215332)"></path>
                    </g>
                </g>
            </g>
            <g data-gra="path-name" fill-rule="" class="tp-name" transform="translate(10,5)" fill="#fff">
                <g transform="scale(1)">
                    <g>
                        <path d="M23.74 0L22.19-4.71 11.8-4.71 10.26 0 0 0 11.41-31.18 22.68-31.18 34.04 0 23.74 0ZM14.18-12.07L19.82-12.07 17-20.74 14.18-12.07ZM46.02-21.45Q46.94-23.16 48.68-24.15 50.42-25.14 52.84-25.14L52.84-25.14Q55.75-25.14 58.08-23.63 60.42-22.11 61.76-19.22 63.1-16.34 63.1-12.42L63.1-12.42Q63.1-8.5 61.76-5.61 60.42-2.73 58.08-1.21 55.75 0.31 52.84 0.31L52.84 0.31Q50.42 0.31 48.68-0.68 46.94-1.67 46.02-3.39L46.02-3.39 46.02 11.89 36.24 11.89 36.24-24.84 46.02-24.84 46.02-21.45ZM53.2-12.42Q53.2-14.4 52.18-15.5 51.17-16.6 49.58-16.6L49.58-16.6Q48-16.6 46.99-15.5 45.97-14.4 45.97-12.42L45.97-12.42Q45.97-10.44 46.99-9.34 48-8.23 49.58-8.23L49.58-8.23Q51.17-8.23 52.18-9.34 53.2-10.44 53.2-12.42L53.2-12.42ZM75.96-21.45Q76.89-23.16 78.63-24.15 80.37-25.14 82.79-25.14L82.79-25.14Q85.69-25.14 88.03-23.63 90.36-22.11 91.7-19.22 93.05-16.34 93.05-12.42L93.05-12.42Q93.05-8.5 91.7-5.61 90.36-2.73 88.03-1.21 85.69 0.31 82.79 0.31L82.79 0.31Q80.37 0.31 78.63-0.68 76.89-1.67 75.96-3.39L75.96-3.39 75.96 11.89 66.19 11.89 66.19-24.84 75.96-24.84 75.96-21.45ZM83.14-12.42Q83.14-14.4 82.13-15.5 81.11-16.6 79.53-16.6L79.53-16.6Q77.94-16.6 76.93-15.5 75.92-14.4 75.92-12.42L75.92-12.42Q75.92-10.44 76.93-9.34 77.94-8.23 79.53-8.23L79.53-8.23Q81.11-8.23 82.13-9.34 83.14-10.44 83.14-12.42L83.14-12.42ZM107.93 0.31Q104.19 0.31 101.19-1.23 98.2-2.77 96.5-5.66 94.81-8.54 94.81-12.42L94.81-12.42Q94.81-16.29 96.5-19.18 98.2-22.06 101.19-23.6 104.19-25.14 107.93-25.14L107.93-25.14Q111.68-25.14 114.67-23.6 117.66-22.06 119.36-19.18 121.05-16.29 121.05-12.42L121.05-12.42Q121.05-8.54 119.36-5.66 117.66-2.77 114.67-1.23 111.68 0.31 107.93 0.31L107.93 0.31ZM107.93-8.15Q109.3-8.15 110.22-9.23 111.15-10.3 111.15-12.42L111.15-12.42Q111.15-14.53 110.22-15.61 109.3-16.69 107.93-16.69L107.93-16.69Q106.57-16.69 105.64-15.61 104.72-14.53 104.72-12.42L104.72-12.42Q104.72-10.3 105.62-9.23 106.52-8.15 107.93-8.15L107.93-8.15ZM129.07-26.82Q126.52-26.82 124.97-28.18 123.43-29.55 123.43-31.62L123.43-31.62Q123.43-33.73 124.97-35.12 126.52-36.51 129.07-36.51L129.07-36.51Q131.58-36.51 133.12-35.12 134.66-33.73 134.66-31.62L134.66-31.62Q134.66-29.55 133.12-28.18 131.58-26.82 129.07-26.82L129.07-26.82ZM124.14-24.84L133.91-24.84 133.91 0 124.14 0 124.14-24.84ZM155.71-25.01Q159.98-25.01 162.38-22.15 164.78-19.29 164.78-14.4L164.78-14.4 164.78 0 155.05 0 155.05-13.17Q155.05-14.93 154.1-15.96 153.16-17 151.57-17L151.57-17Q149.94-17 149.02-15.96 148.09-14.93 148.09-13.17L148.09-13.17 148.09 0 138.32 0 138.32-24.84 148.09-24.84 148.09-21.05Q149.24-22.81 151.15-23.91 153.07-25.01 155.71-25.01L155.71-25.01ZM182.13-8.32L184.47-8.32 184.47 0 180.77 0Q170.55 0 170.55-10.17L170.55-10.17 170.55-16.69 167.47-16.69 167.47-24.84 170.55-24.84 170.55-30.83 180.33-30.83 180.33-24.84 184.38-24.84 184.38-16.69 180.33-16.69 180.33-10Q180.33-9.12 180.75-8.72 181.16-8.32 182.13-8.32L182.13-8.32ZM188.21-32.59L197.99-32.59 197.99 0 188.21 0 188.21-32.59ZM219.65-24.84L230.44-24.84 214.54 11.89 203.84 11.89 210.1-1.23 199.75-24.84 210.62-24.84 215.29-12.24 219.65-24.84Z" transform="translate(0, 36.5099983215332)"></path>
                    </g>
                </g>
            </g>
        </g>
    </mask>
</svg>